<svg xmlns="http://www.w3.org/2000/svg" width="243.336" height="47.49" viewBox="0 0 243.336 47.49">
  <g id="Logo" transform="translate(-0.125 -0.077)">
    <g id="Group_235" data-name="Group 235" transform="translate(54.71 11.239)">
      <path id="Path_374" data-name="Path 374" d="M43.032,26.054a6.884,6.884,0,0,0,2.724.919,1.99,1.99,0,0,0,1.007-.212l-5.82-13.6H47.36l2.612,7.455,2.388-7.455h6.305L53.516,26.3c-1.455,3.71-3.022,5.194-6.455,5.194a12.555,12.555,0,0,1-5.82-1.449l1.791-3.992Zm15.036-2.791c0-2.862,2.2-4.416,5.671-4.416a11.106,11.106,0,0,1,3.507.53v-.247c0-1.307-.858-2.049-2.761-2.049a11.484,11.484,0,0,0-4.141.813l-1.082-3.922a17.562,17.562,0,0,1,6.268-1.025c3.022,0,5,.6,6.305,1.837A5.665,5.665,0,0,1,73.4,19.27v8.02H67.209V25.877a5.778,5.778,0,0,1-4.291,1.767c-2.836-.035-4.85-1.555-4.85-4.381Zm9.253-1.2v-.6a4.2,4.2,0,0,0-1.418-.247c-1.231,0-1.9.707-1.9,1.59v.035a1.366,1.366,0,0,0,1.418,1.378,1.915,1.915,0,0,0,1.9-2.155ZM75.23,8.423h6.193V27.291H75.23V8.423Zm8.171,0h6.193V27.291H83.4V8.423Zm7.537,14.839c0-2.862,2.2-4.416,5.671-4.416a11.106,11.106,0,0,1,3.507.53v-.247c0-1.307-.858-2.049-2.761-2.049a11.484,11.484,0,0,0-4.141.813l-1.082-3.922A17.562,17.562,0,0,1,98.4,12.946c3.022,0,5,.6,6.305,1.837a5.665,5.665,0,0,1,1.567,4.487v8.02h-6.193V25.877a5.778,5.778,0,0,1-4.291,1.767c-2.836-.035-4.85-1.555-4.85-4.381Zm9.253-1.2v-.6a4.2,4.2,0,0,0-1.418-.247c-1.231,0-1.9.707-1.9,1.59v.035a1.366,1.366,0,0,0,1.418,1.378,1.915,1.915,0,0,0,1.9-2.155Z" transform="translate(-40.942 -8.423)" fill="#e0e0e0"/>
      <path id="Path_375" data-name="Path 375" d="M90.771,19.19c0-3.992,3.283-7.42,8.134-7.42a7.146,7.146,0,0,1,6.753,3.922l-4.44,2.367a2.335,2.335,0,0,0-4.477,1.06v.035a2.333,2.333,0,0,0,2.2,2.544,2.622,2.622,0,0,0,2.313-1.413l4.514,2.438c-1.343,2.367-3.619,3.851-7.163,3.851a7.6,7.6,0,0,1-7.835-7.384Zm15.11,0v-.071c0-3.992,3.507-7.384,8.395-7.384s8.357,3.357,8.357,7.349v.035c0,3.992-3.507,7.384-8.395,7.384s-8.357-3.357-8.357-7.314Zm10.783,0v-.071a2.456,2.456,0,0,0-2.462-2.509,2.386,2.386,0,0,0-2.388,2.473v.035a2.456,2.456,0,0,0,2.462,2.509A2.377,2.377,0,0,0,116.664,19.19Zm7.35-7.137h6.193v1.873a5.8,5.8,0,0,1,4.514-2.226,4.7,4.7,0,0,1,4.4,2.332,6.551,6.551,0,0,1,5.037-2.332,4.767,4.767,0,0,1,5.149,5.158v9.328h-6.193V18.7a1.677,1.677,0,0,0-1.642-1.873,1.73,1.73,0,0,0-1.716,1.873v7.49h-6.193V18.7a1.677,1.677,0,0,0-1.642-1.873,1.73,1.73,0,0,0-1.716,1.873v7.49h-6.193V12.053Zm27.087,0h6.193v1.731a5.684,5.684,0,0,1,4.44-2.085c3.619,0,6.417,2.968,6.417,7.278v.035c0,4.487-2.836,7.455-6.38,7.455a5.641,5.641,0,0,1-4.477-1.943v5.759H151.1V12.053Zm11.044,7.1a2.5,2.5,0,0,0-2.5-2.579,2.472,2.472,0,0,0-2.5,2.544v.035a2.5,2.5,0,1,0,5,0Zm6.828,3c0-2.862,2.2-4.416,5.671-4.416a11.106,11.106,0,0,1,3.507.53v-.247c0-1.307-.858-2.049-2.761-2.049a11.484,11.484,0,0,0-4.141.813l-1.082-3.922a17.562,17.562,0,0,1,6.268-1.025c3.022,0,5,.6,6.305,1.837a5.665,5.665,0,0,1,1.567,4.487v8.02h-6.193V24.772a5.778,5.778,0,0,1-4.291,1.767c-2.836-.035-4.85-1.555-4.85-4.381Zm9.253-1.2v-.6a4.2,4.2,0,0,0-1.418-.247c-1.231,0-1.9.707-1.9,1.59v.035a1.366,1.366,0,0,0,1.418,1.378,1.915,1.915,0,0,0,1.9-2.155Zm7.872-8.9h6.193v2.862a4.506,4.506,0,0,1,4.664-3.039v6.218h-.672c-2.612,0-4.029,1.378-4.029,4.487v3.6H186.06l.037-14.133ZM197.44,19.19a7.357,7.357,0,0,1,7.686-7.455c5.3,0,7.76,3.5,7.76,7.773a8.774,8.774,0,0,1-.037.989H203.26a2.793,2.793,0,0,0,2.8,1.873,4.208,4.208,0,0,0,3.022-1.449L212.4,23.43a8.275,8.275,0,0,1-6.79,3.074c-4.85,0-8.171-2.9-8.171-7.314Zm9.775-1.272a2.108,2.108,0,0,0-2.089-2.12c-1.045,0-1.791.813-1.977,2.12Z" transform="translate(-24.136 -7.318)" fill="#e0e0e0"/>
    </g>
    <path id="Path_376" data-name="Path 376" d="M46.106,32.441A23.831,23.831,0,0,1,6.292,39.77a18.673,18.673,0,0,0,3.058.251c5.175,0,7.537-2.212,9.731-7.743l7.762-19.594H17.337L13.737,23.8,9.8,12.683H2.9a23.831,23.831,0,0,1,43.118,2.3,11.649,11.649,0,0,0-7.283-2.3c-7.312,0-12.262,5.109-12.262,11.061,0,5.9,5.006,10.956,11.812,11.009a12.649,12.649,0,0,0,7.821-2.313Zm1.235-4.36-5.062-2.7a3.958,3.958,0,0,1-3.487,2.107c-1.856,0-3.319-1.58-3.319-3.845A3.508,3.508,0,0,1,38.9,19.952a3.559,3.559,0,0,1,3.319,2.107l5.084-2.68a23.943,23.943,0,0,1,.034,8.7ZM2.37,33.9A23.778,23.778,0,0,1,1.5,15.855L8.9,32.962a3.029,3.029,0,0,1-1.519.316,10.461,10.461,0,0,1-4.106-1.369L2.37,33.9Z" transform="translate(0)" fill="#e0e0e0" fill-rule="evenodd"/>
  </g>
</svg>
